<mxfile host="app.diagrams.net" agent="Mozilla/5.0 (Windows NT 10.0; Win64; x64) AppleWebKit/537.36 (KHTML, like Gecko) Chrome/129.0.0.0 Safari/537.36" version="24.7.17">
  <diagram name="第 1 页" id="5ZFbGhAqAA1sJ_dMorBh">
    <mxGraphModel dx="930" dy="452" grid="1" gridSize="10" guides="1" tooltips="1" connect="1" arrows="1" fold="1" page="1" pageScale="1" pageWidth="827" pageHeight="1169" math="0" shadow="0">
      <root>
        <mxCell id="0" />
        <mxCell id="1" parent="0" />
        <mxCell id="ZcPvi2HNLVtMcrA4znAv-1" value="&lt;font style=&quot;font-size: 24px;&quot;&gt;F&lt;/font&gt;" style="ellipse;whiteSpace=wrap;html=1;aspect=fixed;" vertex="1" parent="1">
          <mxGeometry x="334" y="260" width="80" height="80" as="geometry" />
        </mxCell>
        <mxCell id="ZcPvi2HNLVtMcrA4znAv-5" value="&lt;font style=&quot;font-size: 24px;&quot;&gt;A&lt;/font&gt;" style="ellipse;whiteSpace=wrap;html=1;aspect=fixed;" vertex="1" parent="1">
          <mxGeometry x="334" y="90" width="80" height="80" as="geometry" />
        </mxCell>
        <mxCell id="ZcPvi2HNLVtMcrA4znAv-10" value="&lt;font style=&quot;font-size: 24px;&quot;&gt;B&lt;/font&gt;" style="ellipse;whiteSpace=wrap;html=1;aspect=fixed;" vertex="1" parent="1">
          <mxGeometry x="190" y="190" width="80" height="80" as="geometry" />
        </mxCell>
        <mxCell id="ZcPvi2HNLVtMcrA4znAv-11" value="&lt;font style=&quot;font-size: 24px;&quot;&gt;C&lt;/font&gt;" style="ellipse;whiteSpace=wrap;html=1;aspect=fixed;" vertex="1" parent="1">
          <mxGeometry x="220" y="370" width="80" height="80" as="geometry" />
        </mxCell>
        <mxCell id="ZcPvi2HNLVtMcrA4znAv-12" value="&lt;font style=&quot;font-size: 24px;&quot;&gt;D&lt;/font&gt;" style="ellipse;whiteSpace=wrap;html=1;aspect=fixed;" vertex="1" parent="1">
          <mxGeometry x="450" y="370" width="80" height="80" as="geometry" />
        </mxCell>
        <mxCell id="ZcPvi2HNLVtMcrA4znAv-13" value="&lt;font style=&quot;font-size: 24px;&quot;&gt;E&lt;/font&gt;" style="ellipse;whiteSpace=wrap;html=1;aspect=fixed;" vertex="1" parent="1">
          <mxGeometry x="480" y="180" width="80" height="80" as="geometry" />
        </mxCell>
        <mxCell id="ZcPvi2HNLVtMcrA4znAv-19" value="" style="endArrow=none;dashed=1;html=1;rounded=0;exitX=0.95;exitY=0.285;exitDx=0;exitDy=0;exitPerimeter=0;" edge="1" parent="1" source="ZcPvi2HNLVtMcrA4znAv-1">
          <mxGeometry width="50" height="50" relative="1" as="geometry">
            <mxPoint x="450" y="280" as="sourcePoint" />
            <mxPoint x="480" y="240" as="targetPoint" />
          </mxGeometry>
        </mxCell>
        <mxCell id="ZcPvi2HNLVtMcrA4znAv-36" value="&lt;h3&gt;4&lt;/h3&gt;" style="edgeLabel;html=1;align=center;verticalAlign=middle;resizable=0;points=[];" vertex="1" connectable="0" parent="ZcPvi2HNLVtMcrA4znAv-19">
          <mxGeometry x="0.2793" y="-1" relative="1" as="geometry">
            <mxPoint as="offset" />
          </mxGeometry>
        </mxCell>
        <mxCell id="ZcPvi2HNLVtMcrA4znAv-20" value="" style="endArrow=none;dashed=1;html=1;rounded=0;entryX=1;entryY=1;entryDx=0;entryDy=0;" edge="1" parent="1" source="ZcPvi2HNLVtMcrA4znAv-12" target="ZcPvi2HNLVtMcrA4znAv-1">
          <mxGeometry width="50" height="50" relative="1" as="geometry">
            <mxPoint x="350" y="490" as="sourcePoint" />
            <mxPoint x="400" y="440" as="targetPoint" />
          </mxGeometry>
        </mxCell>
        <mxCell id="ZcPvi2HNLVtMcrA4znAv-39" value="&lt;h3&gt;4&lt;/h3&gt;" style="edgeLabel;html=1;align=center;verticalAlign=middle;resizable=0;points=[];" vertex="1" connectable="0" parent="ZcPvi2HNLVtMcrA4znAv-20">
          <mxGeometry x="0.1546" y="1" relative="1" as="geometry">
            <mxPoint as="offset" />
          </mxGeometry>
        </mxCell>
        <mxCell id="ZcPvi2HNLVtMcrA4znAv-21" value="" style="endArrow=none;dashed=1;html=1;rounded=0;entryX=0.065;entryY=0.838;entryDx=0;entryDy=0;entryPerimeter=0;" edge="1" parent="1" source="ZcPvi2HNLVtMcrA4znAv-11" target="ZcPvi2HNLVtMcrA4znAv-1">
          <mxGeometry width="50" height="50" relative="1" as="geometry">
            <mxPoint x="350" y="530" as="sourcePoint" />
            <mxPoint x="400" y="480" as="targetPoint" />
          </mxGeometry>
        </mxCell>
        <mxCell id="ZcPvi2HNLVtMcrA4znAv-41" value="&lt;h3&gt;6&lt;/h3&gt;" style="edgeLabel;html=1;align=center;verticalAlign=middle;resizable=0;points=[];" vertex="1" connectable="0" parent="ZcPvi2HNLVtMcrA4znAv-21">
          <mxGeometry x="0.0251" y="1" relative="1" as="geometry">
            <mxPoint as="offset" />
          </mxGeometry>
        </mxCell>
        <mxCell id="ZcPvi2HNLVtMcrA4znAv-22" value="" style="endArrow=none;dashed=1;html=1;rounded=0;entryX=0.979;entryY=0.733;entryDx=0;entryDy=0;entryPerimeter=0;" edge="1" parent="1" source="ZcPvi2HNLVtMcrA4znAv-1" target="ZcPvi2HNLVtMcrA4znAv-10">
          <mxGeometry width="50" height="50" relative="1" as="geometry">
            <mxPoint x="780" y="420" as="sourcePoint" />
            <mxPoint x="830" y="370" as="targetPoint" />
          </mxGeometry>
        </mxCell>
        <mxCell id="ZcPvi2HNLVtMcrA4znAv-43" value="&lt;h3&gt;5&lt;/h3&gt;" style="edgeLabel;html=1;align=center;verticalAlign=middle;resizable=0;points=[];" vertex="1" connectable="0" parent="ZcPvi2HNLVtMcrA4znAv-22">
          <mxGeometry x="0.1267" y="-2" relative="1" as="geometry">
            <mxPoint as="offset" />
          </mxGeometry>
        </mxCell>
        <object label="" id="ZcPvi2HNLVtMcrA4znAv-23">
          <mxCell style="endArrow=none;dashed=1;html=1;rounded=0;entryX=0.5;entryY=1;entryDx=0;entryDy=0;" edge="1" parent="1" source="ZcPvi2HNLVtMcrA4znAv-1" target="ZcPvi2HNLVtMcrA4znAv-5">
            <mxGeometry width="50" height="50" relative="1" as="geometry">
              <mxPoint x="360" y="240" as="sourcePoint" />
              <mxPoint x="410" y="190" as="targetPoint" />
            </mxGeometry>
          </mxCell>
        </object>
        <mxCell id="ZcPvi2HNLVtMcrA4znAv-33" value="&lt;br&gt;&lt;div&gt;&lt;br&gt;&lt;/div&gt;" style="edgeLabel;html=1;align=center;verticalAlign=middle;resizable=0;points=[];" vertex="1" connectable="0" parent="ZcPvi2HNLVtMcrA4znAv-23">
          <mxGeometry x="0.0624" y="-1" relative="1" as="geometry">
            <mxPoint as="offset" />
          </mxGeometry>
        </mxCell>
        <mxCell id="ZcPvi2HNLVtMcrA4znAv-35" value="&lt;h3&gt;1&lt;/h3&gt;" style="edgeLabel;html=1;align=center;verticalAlign=middle;resizable=0;points=[];" vertex="1" connectable="0" parent="ZcPvi2HNLVtMcrA4znAv-23">
          <mxGeometry x="0.0321" y="-1" relative="1" as="geometry">
            <mxPoint as="offset" />
          </mxGeometry>
        </mxCell>
        <mxCell id="ZcPvi2HNLVtMcrA4znAv-24" value="" style="endArrow=none;dashed=1;html=1;rounded=0;entryX=0.5;entryY=1;entryDx=0;entryDy=0;exitX=0.375;exitY=0;exitDx=0;exitDy=0;exitPerimeter=0;" edge="1" parent="1" source="ZcPvi2HNLVtMcrA4znAv-11" target="ZcPvi2HNLVtMcrA4znAv-10">
          <mxGeometry width="50" height="50" relative="1" as="geometry">
            <mxPoint x="210" y="340" as="sourcePoint" />
            <mxPoint x="260" y="290" as="targetPoint" />
          </mxGeometry>
        </mxCell>
        <mxCell id="ZcPvi2HNLVtMcrA4znAv-42" value="&lt;h3&gt;3&lt;/h3&gt;" style="edgeLabel;html=1;align=center;verticalAlign=middle;resizable=0;points=[];" vertex="1" connectable="0" parent="ZcPvi2HNLVtMcrA4znAv-24">
          <mxGeometry x="-0.2" y="-2" relative="1" as="geometry">
            <mxPoint as="offset" />
          </mxGeometry>
        </mxCell>
        <mxCell id="ZcPvi2HNLVtMcrA4znAv-25" value="" style="endArrow=none;dashed=1;html=1;rounded=0;entryX=-0.01;entryY=0.629;entryDx=0;entryDy=0;entryPerimeter=0;exitX=0.948;exitY=0.608;exitDx=0;exitDy=0;exitPerimeter=0;" edge="1" parent="1" source="ZcPvi2HNLVtMcrA4znAv-11" target="ZcPvi2HNLVtMcrA4znAv-12">
          <mxGeometry width="50" height="50" relative="1" as="geometry">
            <mxPoint x="350" y="450" as="sourcePoint" />
            <mxPoint x="400" y="400" as="targetPoint" />
          </mxGeometry>
        </mxCell>
        <mxCell id="ZcPvi2HNLVtMcrA4znAv-40" value="&lt;h3&gt;6&lt;/h3&gt;" style="edgeLabel;html=1;align=center;verticalAlign=middle;resizable=0;points=[];" vertex="1" connectable="0" parent="ZcPvi2HNLVtMcrA4znAv-25">
          <mxGeometry x="0.0224" y="-1" relative="1" as="geometry">
            <mxPoint as="offset" />
          </mxGeometry>
        </mxCell>
        <mxCell id="ZcPvi2HNLVtMcrA4znAv-26" value="" style="endArrow=none;dashed=1;html=1;rounded=0;entryX=0.5;entryY=1;entryDx=0;entryDy=0;exitX=0.5;exitY=0;exitDx=0;exitDy=0;" edge="1" parent="1" source="ZcPvi2HNLVtMcrA4znAv-12" target="ZcPvi2HNLVtMcrA4znAv-13">
          <mxGeometry width="50" height="50" relative="1" as="geometry">
            <mxPoint x="490" y="350" as="sourcePoint" />
            <mxPoint x="540" y="300" as="targetPoint" />
          </mxGeometry>
        </mxCell>
        <mxCell id="ZcPvi2HNLVtMcrA4znAv-38" value="&lt;h3&gt;2&lt;/h3&gt;" style="edgeLabel;html=1;align=center;verticalAlign=middle;resizable=0;points=[];" vertex="1" connectable="0" parent="ZcPvi2HNLVtMcrA4znAv-26">
          <mxGeometry x="0.1807" y="-3" relative="1" as="geometry">
            <mxPoint as="offset" />
          </mxGeometry>
        </mxCell>
        <mxCell id="ZcPvi2HNLVtMcrA4znAv-27" value="" style="endArrow=none;dashed=1;html=1;rounded=0;exitX=1;exitY=0;exitDx=0;exitDy=0;entryX=0.065;entryY=0.671;entryDx=0;entryDy=0;entryPerimeter=0;" edge="1" parent="1" source="ZcPvi2HNLVtMcrA4znAv-10" target="ZcPvi2HNLVtMcrA4znAv-5">
          <mxGeometry width="50" height="50" relative="1" as="geometry">
            <mxPoint x="270" y="200" as="sourcePoint" />
            <mxPoint x="320" y="150" as="targetPoint" />
          </mxGeometry>
        </mxCell>
        <mxCell id="ZcPvi2HNLVtMcrA4znAv-44" value="&lt;h3&gt;6&lt;/h3&gt;" style="edgeLabel;html=1;align=center;verticalAlign=middle;resizable=0;points=[];" vertex="1" connectable="0" parent="ZcPvi2HNLVtMcrA4znAv-27">
          <mxGeometry x="-0.237" relative="1" as="geometry">
            <mxPoint as="offset" />
          </mxGeometry>
        </mxCell>
        <mxCell id="ZcPvi2HNLVtMcrA4znAv-28" value="" style="endArrow=none;dashed=1;html=1;rounded=0;entryX=0.992;entryY=0.608;entryDx=0;entryDy=0;entryPerimeter=0;exitX=0.25;exitY=0.25;exitDx=0;exitDy=0;exitPerimeter=0;" edge="1" parent="1" source="ZcPvi2HNLVtMcrA4znAv-13" target="ZcPvi2HNLVtMcrA4znAv-5">
          <mxGeometry width="50" height="50" relative="1" as="geometry">
            <mxPoint x="470" y="170" as="sourcePoint" />
            <mxPoint x="520" y="120" as="targetPoint" />
          </mxGeometry>
        </mxCell>
        <mxCell id="ZcPvi2HNLVtMcrA4znAv-37" value="&lt;h3&gt;5&lt;/h3&gt;" style="edgeLabel;html=1;align=center;verticalAlign=middle;resizable=0;points=[];" vertex="1" connectable="0" parent="ZcPvi2HNLVtMcrA4znAv-28">
          <mxGeometry x="0.0023" y="1" relative="1" as="geometry">
            <mxPoint as="offset" />
          </mxGeometry>
        </mxCell>
      </root>
    </mxGraphModel>
  </diagram>
</mxfile>
